{"title":"Hunter X Hunter 120 [720p][ENG-SUBBED][GWC].mkv","uid":9747481,"size":79789355,"categoryP":"video","categoryS":"tv_shows","magnet":"?xt=urn:btih:b2e54c52df5c647bed732fb4a0f5dbcff504c2a9&amp;dn=Hunter+X+Hunter+120+%5B720p%5D%5BENG-SUBBED%5D%5BGWC%5D.mkv&amp;tr=udp%3A%2F%2Ftracker.openbittorrent.com%3A80&amp;tr=udp%3A%2F%2Fopen.demonii.com%3A1337&amp;tr=udp%3A%2F%2Ftracker.coppersurfer.tk%3A6969&amp;tr=udp%3A%2F%2Fexodus.desync.com%3A6969","seeders":1,"leechers":0,"uploader":"canc232","files":1,"time":1394606484,"description":"Hunter X Hunter 120 [720p][ENG-SUBBED][GWC] \n\n\nSTORYLINE :\nGon is a youth who lives on Kujira Isle. His dream is to become a Hunter like his father, to search out lost treasures, artefacts, and mythical creatures.\nDetermined to become a professional Hunter willing to stake his life in challenging the unknown, he sets off on a journey and meets fellow Hunter wannabes Killua, Kurapika, and Leorio.\n\n\nTHUMBNAIL IMAGE : &lt;a href=&quot;\nhttp://img834.imageshack.us/img834/7262/y7cz.jpg&quot; rel=&quot;nofollow&quot; target=&quot;_NEW&quot;&gt;\nhttp://img834.imageshack.us/img834/7262/y7cz.jpg&lt;/a&gt;\n\n\nMEDIA INFO :\nGeneral \nFormat : Matroska \nFile size : 76.1 MiB \nDuration : 20mn 59s \nOverall bit rate mode : Variable \nOverall bit rate : 507 Kbps \nWriting application : mkvmerge v6.8.0 ('Theme for Great Cities')\n\nVideo \nFormat : AVC \nFormat profile : &lt;a class=&quot;__cf_email__&quot; href=&quot;/cdn-cgi/l/email-protection&quot; data-cfemail=&quot;aae2c3cdc2eae69e849b&quot;&gt;[email&amp;#160;protected]&lt;/a&gt;&lt;script cf-hash='f9e31' type=&quot;text/javascript&quot;&gt;\n/* &lt;![CDATA[ */!function(){try{var t=&quot;currentScript&quot;in document?document.currentScript:function(){for(var t=document.getElementsByTagName(&quot;script&quot;),e=t.length;e--;)if(t[e].getAttribute(&quot;cf-hash&quot;))return t[e]}();if(t&amp;&amp;t.previousSibling){var e,r,n,i,c=t.previousSibling,a=c.getAttribute(&quot;data-cfemail&quot;);if(a){for(e=&quot;&quot;,r=parseInt(a.substr(0,2),16),n=2;a.length-n;n+=2)i=parseInt(a.substr(n,2),16)^r,e+=String.fromCharCode(i);e=document.createTextNode(e),c.parentNode.replaceChild(e,c)}}}catch(u){}}();/* ]]&gt; */&lt;/script&gt; \nFormat settings, CABAC : Yes \nCodec ID : V_MPEG4/ISO/AVC \nDuration : 20mn 59s \nBit rate : 441 Kbps \nWidth : 1 280 pixels \nHeight : 720 pixels \nDisplay aspect ratio : 16:9 \nFrame rate : 23.976 fps \nStream size : 66.2 MiB (87%) \nTitle : Hunter X Hunter 120 [720p][ENG-SUBBED][GWC] \nWriting library : x264 core \n\nAudio \nFormat : Vorbis \nCodec ID : A_VORBIS \nDuration : 20mn 59s \nBit rate mode : Variable \nBit rate : 56.0 Kbps \nChannel(s) : 2 channels \nSampling rate : 44.1 KHz \nStream size : 8.41 MiB (11%) \nWriting library : aoTuV 20110424\n\nText \nFormat : UTF-8 \nTitle : [GWC] \nLanguage : English","torrent":{"xt":"urn:btih:b2e54c52df5c647bed732fb4a0f5dbcff504c2a9","amp;dn":"Hunter+X+Hunter+120+%5B720p%5D%5BENG-SUBBED%5D%5BGWC%5D.mkv","amp;tr":["udp%3A%2F%2Ftracker.openbittorrent.com%3A80","udp%3A%2F%2Fopen.demonii.com%3A1337","udp%3A%2F%2Ftracker.coppersurfer.tk%3A6969","udp%3A%2F%2Fexodus.desync.com%3A6969"],"infoHash":"b2e54c52df5c647bed732fb4a0f5dbcff504c2a9","infoHashBuffer":{"type":"Buffer","data":[178,229,76,82,223,92,100,123,237,115,47,180,160,245,219,207,245,4,194,169]},"announce":[],"urlList":[]}}